<?xml version="1.0" encoding="utf-8"?>
<!-- Generator: Adobe Illustrator 12.0.0, SVG Export Plug-In  -->
<!DOCTYPE svg PUBLIC "-//W3C//DTD SVG 1.1//EN" "http://www.w3.org/Graphics/SVG/1.1/DTD/svg11.dtd" [
	<!ENTITY ns_flows "http://ns.adobe.com/Flows/1.0/">
	<!ENTITY ns_svg "http://www.w3.org/2000/svg">
	<!ENTITY ns_xlink "http://www.w3.org/1999/xlink">
]>
<svg  version="1.1" xmlns="&ns_svg;" xmlns:xlink="&ns_xlink;" xmlns:a="http://ns.adobe.com/AdobeSVGViewerExtensions/3.0/"
	 width="589" height="325" viewBox="3 7.89 589 325" enable-background="new 3 7.89 589 325" xml:space="preserve">
<defs>
</defs>
<g>
	<defs>
		<polyline id="XMLID_6_" points="595.28,841.89 0,841.89 0,0 595.28,0 		"/>
	</defs>
	<clipPath id="XMLID_9_">
		<use xlink:href="#XMLID_6_" />
	</clipPath>
	<path clip-path="url(#XMLID_9_)" fill="#F39C16" d="M559.095,219.4l4.826,4.188l27.653-37.934l-59.851,18.534l7.821,4.339
		c0,0-10.635,14.557-7.176,27.217c3.46,12.661,22.47,28.325,22.47,28.325l-30.132-5.519l-26.895-28.082l-6.396-1.673l-20.039-21.931
		l8.303-5.885l-2.252-3.159l-48.337,0.051l21.66,19.912l-67.571,1.945l8.537-62.495l-25.467-9.589l16.059-8.314l-17.866-9.536
		l-2.098,0.581l5.296,6.21l-26.926,6.91c0,0-21.691-8.1-29.145-20.486c-7.455-12.385,4.448-23.876,4.448-23.876l-5.26-3.765
		l-22.847,33.718l17.717,14.751c0,0-28.921-3.41-31.85,11.961c-2.93,15.372-11.235,55.943-11.235,55.943l-45.517,18.056
		l-35.141,81.191l6.76-2.046l35.048-32.317l67.428-27.784l20.134-45.977l-0.041,30.732l3.582,1.046l2.67-48.011l-7.211-2.563
		l-13.146,28.589c0,0,9.472-42.143,11.161-49.688c2.885-12.888,30.854-11.47,30.854-11.47l17.684,7.657l5.369,42.981l4.708,6.961
		l0.559,13.264l-10.203-2.822l-0.772,7.84l10.789,1.844l-30.448,3.865l7.4,6.508l22.612-2.118l-1.099,21.908l35.865,63.772
		l5.78-0.584l-29.566-64.885c0,0,15.275-23.199,71.207-9.124l-20.966,7.533l3.419,9.052l34.074-10.419
		c8.532-0.913-2.54,36.429,4.489,36.127c7.029-0.301,0.247-27.262,7.358-26.737s-8.875,56.473,4.298,56.473
		s-1.05-56.246,2.813-55.948s77.731,6.079,77.731,6.079l9.481-3.262c0,0-18.31-20.306-19.706-34.379
		C550.604,219.012,559.095,219.4,559.095,219.4"/>
	<path clip-path="url(#XMLID_9_)" fill="none" stroke="#000000" stroke-width="0.25" d="M559.095,219.4l4.826,4.188l27.653-37.934
		l-59.851,18.534l7.821,4.339c0,0-10.635,14.557-7.176,27.217c3.46,12.661,22.47,28.325,22.47,28.325l-30.132-5.519l-26.895-28.082
		l-6.396-1.673l-20.039-21.931l8.303-5.885l-2.252-3.159l-48.337,0.051l21.66,19.912l-67.571,1.945l8.537-62.495l-25.467-9.589
		l16.059-8.314l-17.866-9.536l-2.098,0.581l5.296,6.21l-26.926,6.91c0,0-21.691-8.1-29.145-20.486
		c-7.455-12.385,4.448-23.876,4.448-23.876l-5.26-3.765l-22.847,33.718l17.717,14.751c0,0-28.921-3.41-31.85,11.961
		c-2.93,15.372-11.235,55.943-11.235,55.943l-45.517,18.056l-35.141,81.191l6.76-2.046l35.048-32.317l67.428-27.784l20.134-45.977
		l-0.041,30.732l3.582,1.046l2.67-48.011l-7.211-2.563l-13.146,28.589c0,0,9.472-42.143,11.161-49.688
		c2.885-12.888,30.854-11.47,30.854-11.47l17.684,7.657l5.369,42.981l4.708,6.961l0.559,13.264l-10.203-2.822l-0.772,7.84
		l10.789,1.844l-30.448,3.865l7.4,6.508l22.612-2.118l-1.099,21.908l35.865,63.772l5.78-0.584l-29.566-64.885
		c0,0,15.275-23.199,71.207-9.124l-20.966,7.533l3.419,9.052l34.074-10.419c8.532-0.913-2.54,36.429,4.489,36.127
		c7.029-0.301,0.247-27.262,7.358-26.737s-8.875,56.473,4.298,56.473s-1.05-56.246,2.813-55.948s77.731,6.079,77.731,6.079
		l9.481-3.262c0,0-18.31-20.306-19.706-34.379C550.604,219.012,559.095,219.4,559.095,219.4z"/>
	<path clip-path="url(#XMLID_9_)" fill="#5BB792" d="M415.267,191.557c-16.945-17.599,43.966-18.779,43.966-18.779l8.059,9.973
		l27.259,0.071l-31.748-49.277l11.625,11.129l5.325-2.108l-24.622-30.422l-77.043-0.333L410.4,158.23l4.706-0.798l-3.697-8.08
		l34.633-1.313l8.649,11.182l-73.509,2.511c-38.724,0.649,21.293,47.959,21.293,47.959l4.43-2.145l-7.549-10.667l53.202,48.443
		l-44.165,2.735l3.467,6.13c-42.137,7.163-38.065,54.91-67.437,56.533l-18.629-53.373l-11.598,9.221l0.485-30.179l-3.129-1.39
		l-3.644,61.348l21.881-15.12l12.433,32.186c27.571,14.184,46.071-46.316,78.249-39.836l3.251,5.773l52.799-31.328
		C431.128,205.804,426.157,203.427,415.267,191.557"/>
	<path clip-path="url(#XMLID_9_)" fill="none" stroke="#000000" stroke-width="0.25" d="M415.267,191.557
		c-16.945-17.599,43.966-18.779,43.966-18.779l8.059,9.973l27.259,0.071l-31.748-49.277l11.625,11.129l5.325-2.108l-24.622-30.422
		l-77.043-0.333L410.4,158.23l4.706-0.798l-3.697-8.08l34.633-1.313l8.649,11.182l-73.509,2.511
		c-38.724,0.649,21.293,47.959,21.293,47.959l4.43-2.145l-7.549-10.667l53.202,48.443l-44.165,2.735l3.467,6.13
		c-42.137,7.163-38.065,54.91-67.437,56.533l-18.629-53.373l-11.598,9.221l0.485-30.179l-3.129-1.39l-3.644,61.348l21.881-15.12
		l12.433,32.186c27.571,14.184,46.071-46.316,78.249-39.836l3.251,5.773l52.799-31.328
		C431.128,205.804,426.157,203.427,415.267,191.557z"/>
	<path clip-path="url(#XMLID_9_)" fill="#5BB792" d="M243.688,167.08l15.274,0.028l-2.705-6.903l-14.051,0.867l18-6l2.425-29.379
		l7.829,14.091l1.61-0.101l-8.757-22.247l-5.063,1.402l-2.991,29.905l-1.553-32.837l-133.524,40.743l1.337,6.177l13.163,3.355
		c0,0,9.317,36.2-0.084,53.146c-3.21,5.787-83.136,57.444-83.136,57.444s27.931-18.049,31.739-35.4
		c3.807-17.351-36.377-54.113-36.377-54.113l6.457-2.725l-15.496-50.879L16.96,198.986l6.85-2.767c0,0,46.687,36.597,43.234,48.461
		c-3.454,11.864-48.897,43.106-48.897,43.106l-14.441,2.215l0.146,7.346l100.689,0.637l3.528-2.52l-17.352-3.9l65.282-50.382
		l3.098-52.133l36.658-13.937l-36.935,77.775l-12.179,7.816l-0.229,5.328l31.89-12.045l-4.012,7.334c0,0,64.807,5.545,80.739-14.339
		C270.962,227.097,243.688,167.08,243.688,167.08 M244.962,241.097c-8.667,9.333-51.703-7.847-51.703-7.847l4.769-5.396
		l-0.354-4.773l-5.48,3.955l25.012-57.659C217.206,169.377,253.629,231.764,244.962,241.097"/>
	<path clip-path="url(#XMLID_9_)" fill="none" stroke="#000000" stroke-width="0.25" d="M243.688,167.08l15.274,0.028l-2.705-6.903
		l-14.051,0.867l18-6l2.425-29.379l7.829,14.091l1.61-0.101l-8.757-22.247l-5.063,1.402l-2.991,29.905l-1.553-32.837
		l-133.524,40.743l1.337,6.177l13.163,3.355c0,0,9.317,36.2-0.084,53.146c-3.21,5.787-83.136,57.444-83.136,57.444
		s27.931-18.049,31.739-35.4c3.807-17.351-36.377-54.113-36.377-54.113l6.457-2.725l-15.496-50.879L16.96,198.986l6.85-2.767
		c0,0,46.687,36.597,43.234,48.461c-3.454,11.864-48.897,43.106-48.897,43.106l-14.441,2.215l0.146,7.346l100.689,0.637l3.528-2.52
		l-17.352-3.9l65.282-50.382l3.098-52.133l36.658-13.937l-36.935,77.775l-12.179,7.816l-0.229,5.328l31.89-12.045l-4.012,7.334
		c0,0,64.807,5.545,80.739-14.339C270.962,227.097,243.688,167.08,243.688,167.08z M244.962,241.097
		c-8.667,9.333-51.703-7.847-51.703-7.847l4.769-5.396l-0.354-4.773l-5.48,3.955l25.012-57.659
		C217.206,169.377,253.629,231.764,244.962,241.097z"/>
	<path clip-path="url(#XMLID_9_)" fill="#F39C16" d="M282.103,124.054l4.37,3.703l22.615-33.654l-2.846-2.008l-79.031,15.499
		l-15.897-18.709l9.677-79.982L200.73,25.709l-5.857,21.418l-26.773-6.447l-2.123,5.595l28.158,3.835l-66.347-1.117l-4.461,10.775
		l69.67-6.019c0,0-9.799,23.255-21.804,34.749c-9.32,8.925-44.183,22.819-44.183,22.819l-0.791-8.109l-2.746,1.012l-5.168,19.372
		l51.082-16.641l-22.316,65.245l0.18,54.127L38.883,315.166l23.025,1.41l2.137-1.798L60.46,308.2l103.046-79.293l9.244-61.575
		l33.81-56.164l17.861,9.982l72.599-19.293L282.103,124.054z"/>
	<path clip-path="url(#XMLID_9_)" fill="none" stroke="#000000" stroke-width="0.25" d="M282.103,124.054l4.37,3.703l22.615-33.654
		l-2.846-2.008l-79.031,15.499l-15.897-18.709l9.677-79.982L200.73,25.709l-5.857,21.418l-26.773-6.447l-2.123,5.595l28.158,3.835
		l-66.347-1.117l-4.461,10.775l69.67-6.019c0,0-9.799,23.255-21.804,34.749c-9.32,8.925-44.183,22.819-44.183,22.819l-0.791-8.109
		l-2.746,1.012l-5.168,19.372l51.082-16.641l-22.316,65.245l0.18,54.127L38.883,315.166l23.025,1.41l2.137-1.798L60.46,308.2
		l103.046-79.293l9.244-61.575l33.81-56.164l17.861,9.982l72.599-19.293L282.103,124.054z"/>
	<polygon clip-path="url(#XMLID_9_)" fill="#F39C16" points="288.295,255.764 227.628,281.764 175.628,331.764 209.628,323.764 
		235.628,287.042 284.295,264.431 	"/>
	<polygon clip-path="url(#XMLID_9_)" fill="none" stroke="#000000" stroke-width="0.25" points="288.295,255.764 227.628,281.764 
		175.628,331.764 209.628,323.764 235.628,287.042 284.295,264.431 	"/>
	<polygon clip-path="url(#XMLID_9_)" fill="#5BB792" points="372.962,107.431 452.962,107.431 489.629,88.764 484.629,68.431 
		450.962,91.098 368.295,100.369 	"/>
	<polygon clip-path="url(#XMLID_9_)" fill="none" stroke="#000000" stroke-width="0.25" points="372.962,107.431 452.962,107.431 
		489.629,88.764 484.629,68.431 450.962,91.098 368.295,100.369 	"/>
</g>
</svg>
