<?xml version="1.0" encoding="utf-8"?>
<!-- Generator: Adobe Illustrator 12.0.0, SVG Export Plug-In . SVG Version: 6.00 Build 51448)  -->
<!DOCTYPE svg PUBLIC "-//W3C//DTD SVG 1.0//EN" "http://www.w3.org/TR/2001/REC-SVG-20010904/DTD/svg10.dtd" [
	<!ENTITY ns_svg "http://www.w3.org/2000/svg">
	<!ENTITY ns_xlink "http://www.w3.org/1999/xlink">
]>
<svg  version="1.0" id="Layer_1" xmlns="&ns_svg;" xmlns:xlink="&ns_xlink;" width="2091.617" height="2086.26"
	 viewBox="0 0 2091.617 2086.26" overflow="visible" enable-background="new 0 0 2091.617 2086.26" xml:space="preserve">
<path fill="#FFFFFF" d="M71.296,918.611c24.407,12.79,30.623,254.094,7.783,211.739S46.89,905.821,71.296,918.611z"/>
<path fill="#FFFFFF" d="M71.296,1196.205c33.104,5.203,32.014-24.284,55.396-14.871c148.406,364.133-138.29,16.5-126.327-36.472
	S38.192,1191.002,71.296,1196.205z"/>
<path fill="#FFFFFF" d="M2032.178,1139.258c-25.478,93.434-119.377,172.444-82.252,191.705s217.245-176.881,105.75-333.774
	C2020.896,944.086,2052.9,1063.265,2032.178,1139.258z"/>
<path fill="#FFFFFF" d="M1649.204,132.478c78.383-251.975,396.63,462.513,115.664,541.97s-586.852-49.159-603.386,156.345
	c0,278.729,442.424,70.168,477.808,105.552c30.787,30.787-139.616,101.132-113.247,144.831
	c26.369,43.699,379.738-218.318,390.842-152.267s-232.898,447.752-297.374,512.228c189.207,0-332.93,309.812-419.585,396.467
	s-40.217,171.157-79.322,171.157s35.408-256.144-68.397-256.144s6.84,333.643-71.456,333.643s24.777-220.33-62.608-307.715
	c-96.333-96.333-478.075-214.136-366.096-301.057c-256.728-133.301-337.969-544.385-280.899-601.455
	s405.459,301.746,452.743,254.461S565.517,970.827,611.53,902.471s391.606,171.897,411.934-83.14
	c20.33-255.037-450.844-168.017-613.52-168.017s6.609-155.321,6.609-155.321S-307.19-309.48,1649.204,132.478z M1103.244,1463.258
	c-155.111,0.681-299.604-98.321-244.822-19.032c108.286,156.703,380.906,145.92,473.516-3.033
	C1371.838,1367.583,1249.58,1462.615,1103.244,1463.258z"/>
</svg>
